# xmcd
#
# Track frame offsets: 
#        150
#        15399
#        30674
#        42085
#        55593
#        69311
#        90796
#        108674
#        125947
#        144187
#        161776
#        178980
#
# Disc length: 2612 seconds
#
# Revision: 0
# Processed by: cddbd v1.5.2PL0 Copyright (c) Steve Scherf et al.
# Submitted via: ExactAudioCopy v0.99pb5
#
DISCID=980a320c
DTITLE=Karina Fugett - Like a Seed
DYEAR=2009
DGENRE=LDS Pop
TTITLE0=My Better Half
TTITLE1=The Wedding Cake
TTITLE2=The Road
TTITLE3=Not Enough
TTITLE4=A Peculiar People
TTITLE5=The Ones Who Loved Her
TTITLE6=The Glorious Sight
TTITLE7=Stay Awake
TTITLE8=On Bended Knee
TTITLE9=Peace Be Unto Thy Soul
TTITLE10=Come Ye Disconsolate
TTITLE11=Like a Seed
EXTD=
EXTT0=
EXTT1=
EXTT2=
EXTT3=
EXTT4=
EXTT5=
EXTT6=
EXTT7=
EXTT8=
EXTT9=
EXTT10=
EXTT11=
PLAYORDER=
